<svg xmlns="http://www.w3.org/2000/svg" xmlns:xlink="http://www.w3.org/1999/xlink" width="521" height="767" viewBox="0 0 521 767"><defs><style>.cls-1{fill:url(#linear-gradient);}.cls-2{fill:url(#linear-gradient-2);}.cls-3,.cls-6{fill:#f50;}.cls-3{opacity:0.29;}.cls-4{opacity:0.67;}.cls-5{fill:url(#linear-gradient-3);}.cls-6{opacity:0.27;}.cls-7{filter:url(#AI_GaussianBlur_7);}.cls-8{opacity:0.34;filter:url(#AI_Turbulence_5);}.cls-9{fill:#fff;}.cls-10{fill:#ff4800;}</style><linearGradient id="linear-gradient" x1="170.88" y1="-617.57" x2="291.59" y2="-465.6" gradientTransform="translate(-202.21 820.36) rotate(10.94)" gradientUnits="userSpaceOnUse"><stop offset="0" stop-color="#f15a24"/><stop offset="0.06" stop-color="#c1481d"/><stop offset="0.13" stop-color="#8f3615"/><stop offset="0.2" stop-color="#63250f"/><stop offset="0.27" stop-color="#401809"/><stop offset="0.34" stop-color="#240e05"/><stop offset="0.41" stop-color="#110702"/><stop offset="0.48" stop-color="#050201"/><stop offset="0.56" stop-color="#010100"/><stop offset="1"/></linearGradient><linearGradient id="linear-gradient-2" x1="146.71" y1="-628.52" x2="287.82" y2="-494.91" gradientTransform="translate(-203.4 823.77) rotate(10.98)" gradientUnits="userSpaceOnUse"><stop offset="0" stop-color="#f7931e"/><stop offset="0" stop-color="#f4911e" stop-opacity="0.99"/><stop offset="0.04" stop-color="#c67618" stop-opacity="0.8"/><stop offset="0.09" stop-color="#9d5d13" stop-opacity="0.63"/><stop offset="0.14" stop-color="#77470e" stop-opacity="0.48"/><stop offset="0.19" stop-color="#57340b" stop-opacity="0.35"/><stop offset="0.25" stop-color="#3b2307" stop-opacity="0.24"/><stop offset="0.32" stop-color="#251605" stop-opacity="0.15"/><stop offset="0.39" stop-color="#140c02" stop-opacity="0.08"/><stop offset="0.49" stop-color="#090501" stop-opacity="0.04"/><stop offset="0.62" stop-color="#020100" stop-opacity="0.01"/><stop offset="1" stop-opacity="0"/></linearGradient><linearGradient id="linear-gradient-3" x1="-4327.03" y1="3626.86" x2="-4498.23" y2="3543.24" gradientTransform="translate(-3213.2 -4075.23) rotate(-90.48)" gradientUnits="userSpaceOnUse"><stop offset="0" stop-color="#f15a24"/><stop offset="0.15" stop-color="#af411a"/><stop offset="0.32" stop-color="#65260f"/><stop offset="0.47" stop-color="#2e1107"/><stop offset="0.58" stop-color="#0d0502"/><stop offset="0.64"/><stop offset="0.95"/></linearGradient><filter id="AI_GaussianBlur_7" name="AI_GaussianBlur_7"><feGaussianBlur stdDeviation="7"/></filter><filter id="AI_Turbulence_5" x="0" y="0" width="100%" height="100%" name="AI_Turbulence_5"><feTurbulence result="turb" baseFrequency="0.4" numOctaves="4" type="fractalNoise"/><feComposite operator="in" in="turb" in2="SourceAlpha"/></filter></defs><g id="Layer_11" data-name="Layer 11"><rect x="-434" y="-0.83" width="1369" height="768"/><path class="cls-1" d="M236,315.08a55,55,0,0,0,1.24-20c-1.85-17-10.05-28.9-14-34.51-3.84-5.42-10.85-15.1-23.77-22.75-24.09-14.27-48.18-9.3-52.35-8.13a41.72,41.72,0,0,0-7.74,3c-4.83,2.63-4.57,4.08-7.68,5.2-2.25.8-6.2.12-14-1.28a76.49,76.49,0,0,1-9.14-1.91c-5.07-1.69-6.47-3.29-8.59-2.49-2.46.94-4.22,4.51-4.17,7.48,0,2.41,1.26,3.93.29,5.19A3.78,3.78,0,0,1,93.22,246c-2,0-2.52-1.47-4.22-1.59s-3.3,1.33-4.11,2.14c-2.89,2.85-2.09,5.89-4.23,6.66-1.33.48-1.81-.65-4-.33a6.2,6.2,0,0,0-4.51,3c-.94,1.87.31,2.95-.52,4.51-1,1.82-3.4,1.72-6,2.65-3.09,1.09-7,3.53-8.34,6.22-2.72,5.61,4.86,14.87,13.82,25.81,3.94,4.8,5.9,7.2,6.11,7.4,2.79,2.62,5.1,4,4.89,5.92-.11.91-.72,1.49-2.81,3.24-3.34,2.79-5,4.18-6,4.82-1.91,1.24-2.47,1.88-11.81,10.48-8.54,7.88-12.79,11.84-14,12.7-5.7,4.25-15.69,7.87-34.46,4.23C9.2,363,14.85,374.26,17.4,378.48c9.05,15,27.65,21.54,47.61,28.57,4.66,1.64,8.63,2.81,11.45,3.6,8.38-9.38,15.81-16.68,21.22-21.74,15.68-14.7,23.76-22.13,35.71-26.25,5.91-2,12.5-2.67,25.69-3.92,25.15-2.39,25.35.82,35.08-1.62C213.76,352.2,231,334.66,236,315.08Z"/><path class="cls-2" d="M236.26,315.2a55.07,55.07,0,0,0,1.26-19.95c-1.84-17-10-28.92-14-34.53-3.83-5.42-10.83-15.11-23.74-22.77-24.08-14.28-48.18-9.34-52.35-8.16a41.32,41.32,0,0,0-7.74,3c-4.83,2.62-4.57,4.08-7.69,5.19-2.24.8-6.2.12-14-1.29a77.94,77.94,0,0,1-9.14-1.92c-5.07-1.69-6.47-3.29-8.59-2.49-2.46.93-4.22,4.5-4.17,7.47,0,2.41,1.25,3.93.28,5.19A3.79,3.79,0,0,1,93.5,246c-2-.05-2.52-1.47-4.22-1.6s-3.3,1.33-4.12,2.14c-2.89,2.85-2.09,5.89-4.22,6.66-1.34.48-1.82-.65-4-.33a6.15,6.15,0,0,0-4.52,3c-.94,1.87.3,2.95-.53,4.52-1,1.82-3.4,1.7-6.05,2.64-3.09,1.09-7,3.52-8.34,6.21-2.73,5.61,4.85,14.87,13.8,25.82,3.93,4.81,5.9,7.21,6.1,7.4,2.79,2.63,5.1,4,4.88,5.93-.1.91-.72,1.49-2.81,3.24-3.34,2.78-5,4.18-6,4.82-1.91,1.23-2.47,1.87-11.82,10.46-5.25,4.84-8.23,9.22-14,12.7a48.47,48.47,0,0,1-16.57,6,50.09,50.09,0,0,1-14.47.36c-4.57,21.6,2.73,33.41,5.06,36.77,8.31,11.94,23.6,17.31,43.42,24.27,4.74,1.66,8.72,2.84,11.44,3.6C85,401.27,92.43,394,97.84,388.92c15.69-14.68,23.78-22.11,35.73-26.22,5.91-2,12.51-2.66,25.7-3.9,25.15-2.37,25.35.84,35.08-1.59C214,352.31,231.2,334.78,236.26,315.2Z"/><path class="cls-3" d="M177.09,208.73a150.86,150.86,0,0,0-68.36,12.14A149.08,149.08,0,0,0,49.05,268,72.8,72.8,0,0,0,67.5,289.05a73.54,73.54,0,0,0,20.25,11.07A186,186,0,0,0,167.33,293a180.65,180.65,0,0,0,39.06-17.85Z"/><path class="cls-4" d="M129.57,238.84c1.1.47,12.29,5.56,14.53,17.39A23.23,23.23,0,0,1,141.8,271a38.05,38.05,0,0,1-10.48-15.85A37.62,37.62,0,0,1,129.57,238.84Z"/><path class="cls-4" d="M73.47,242.47c1.31-1.17,2.76-2.37,4.34-3.57,1.74-1.34,3.44-2.52,5.06-3.57A70.46,70.46,0,0,1,89,259.25c.69,9.46-.66,18.17-1.81,18.2s-.87-10.67-6.87-23.56A64,64,0,0,0,73.47,242.47Z"/><path class="cls-5" d="M456.35,319.16a14.74,14.74,0,0,1,1-6.56c1.66-3.85,4.29-4.78,6.75-7.35,5.1-5.32,7.12-15.23,3.64-19.42-3-3.61-8.58-1.13-11.35-5.54-1.5-2.38-.79-4.53-3.09-6.23a38.07,38.07,0,0,0-4.53-2.47c-1.43-.7-1.61-.72-2-1.1-1.12-1.06-.87-2-2.14-4.4a5.63,5.63,0,0,0-1.45-2.1c-1-.73-1.86-.45-4.08-.93a7.23,7.23,0,0,1-2.8-.87c-1.7-1.45.3-4.5-.13-9.16-.06-.68-.68-6.64-4-8-1.85-.77-3,.5-6.76,1.5-3.15.84-3.44.25-15.2.15-6.26-.06-7.24.1-8.71-.87-2.84-1.86-2-4.21-4.83-7.82s-6.5-4.91-10.79-6.54c-2.88-1.08-3.89-1.09-11-2.73-6.06-1.41-9.42-2.36-11-2.73-7.89-1.92-21.42-1.61-32.79,2.22-18.87,6.34-28.82,21.35-34.46,29.85-7.13,10.74-19.05,28.72-14.81,52.25,3.48,19.29,16.42,34.61,30.66,42.67,20,11.32,44.47,9.43,52.48,7.23a18.81,18.81,0,0,1,5.7-.79c4.72.09,9.48,2.07,17.89,9.12a108.88,108.88,0,0,1,13.09,12.81,235.76,235.76,0,0,1,22.71,33.38l80.92-23.35,1.09-42.84A64,64,0,0,1,491.48,346c-9.9-2.95-16.21-7.5-22.36-12C457.15,325.11,456.47,320.47,456.35,319.16Z"/><path class="cls-6" d="M361,214a150.53,150.53,0,0,1,65.51,22.81,148,148,0,0,1,51.24,56,73.4,73.4,0,0,1-43.42,25.58A185.46,185.46,0,0,1,357,298.71a180.2,180.2,0,0,1-35.66-23.8Z"/><path class="cls-4" d="M402.7,246.58c-1.16.29-13,3.54-17.17,14.86a23.17,23.17,0,0,0-.13,15,38.36,38.36,0,0,0,12.91-14A37.55,37.55,0,0,0,402.7,246.58Z"/><path class="cls-4" d="M451.7,256.91c1.55,1.65,3.1,3.35,4.67,5.1s3.23,3.64,4.76,5.43a121.64,121.64,0,0,1-20.07,9.24c-8.91,3.15-17.68,5.09-18.06,4.1s10.26-4.13,20.45-13.93A57.75,57.75,0,0,0,451.7,256.91Z"/><g class="cls-7"><path d="M582.7,330c-7.68-5.74-16.11-4.91-70.33,18.42-45.27,19.47-67.91,29.34-68.21,35.85-1.26,27.53,115,84.93,147.43,38.51C608.61,398.41,602.85,345,582.7,330Z"/></g><g class="cls-7"><path d="M-21.46,334.8c7.68-5.74,16.11-4.91,70.33,18.42,45.27,19.47,67.91,29.35,68.21,35.86,1.26,27.53-115,84.92-147.44,38.5C-47.37,403.23-41.61,349.86-21.46,334.8Z"/></g><g class="cls-8"><rect class="cls-9" x="-433.7" y="1.14" width="1369" height="767.37"/></g><path class="cls-10" d="M210.57,496.72H206V381.49h4.62Z"/><path class="cls-10" d="M190.36,381.82,184.74,428h-4.57l-5.34-46.21h5l2.72,32.27,2.91-32.27Z"/><path class="cls-10" d="M237.68,428H226.34V381.82h4.72V422.9h6.62Z"/><path class="cls-10" d="M252.31,381.82h5.81c6.1,0,7.91,2.77,7.91,11.52v23.17c0,8.81-1.81,11.52-7.91,11.52h-5.81Zm9.1,8.93c0-2.88-.52-3.51-3.1-3.51H257v35.43h1.28c2.58,0,3.1-.69,3.1-3.51Z"/><path class="cls-10" d="M294.67,418.29c0,7.38-1.14,12.33-12.53,9.57v-5.48c6.91,1.85,7.82,0,7.82-3.51v-4h-7.82V391.56c0-7.38,1.19-12.33,12.53-9.57v5.48c-6.91-1.85-7.81,0-7.81,3.51v18.73h7.81Z"/><path class="cls-10" d="M319.88,381.82h4.62v17.63c0,6.86-.71,9.51-2.81,11.47h2.81v9.45c0,6.1,1.81,7.66,1.81,7.66h-4.62s-1.81-.75-1.81-7.66v-5.48H315.5V428h-4.72V381.82h4.72v27.83h1.09c2.39,0,3.29-2.88,3.29-8.93Z"/><path class="cls-10" d="M354.24,381.88v38c0,7.26-3.67,8.87-6.91,8.87-3.57,0-6.82-1.84-6.82-8.87v-38h4.72v38.43c0,2.42.72,3.17,2.15,3.17s2.14-.69,2.14-3.17V381.88Z"/><path class="cls-10" d="M370.82,381.82h5.81c6.1,0,7.91,2.77,7.91,11.52v23.17c0,8.81-1.81,11.52-7.91,11.52h-5.81Zm9.1,8.93c0-2.88-.52-3.51-3.1-3.51h-1.28v35.43h1.28c2.58,0,3.1-.69,3.1-3.51Z"/><path class="cls-10" d="M105.34,478.25h6.91v5.24h-6.91v13.14h-4.71V483.49H96.86l1.81-5.24h2V460.1c0-7.38.23-12.27,11.62-9.57V456c-6.91-1.85-6.91,0-6.91,3.51Z"/><path class="cls-10" d="M131.88,487.52c0,3.52.91,5.36,7.82,3.52v5.47c-11.34,2.77-12.53-2.19-12.53-9.56V460.1c0-7.38,1.19-12.27,12.53-9.57V456c-6.91-1.85-7.82,0-7.82,3.51v18.73h6.87v5.24h-6.87Z"/><path class="cls-10" d="M167.53,486.89c0,7.37-1.14,12.33-12.53,9.56V491c6.91,1.84,7.81,0,7.81-3.51v-4H155V460.16c0-7.38,1.19-12.33,12.53-9.57v5.47c-6.91-1.84-7.82,0-7.82,3.52V478.3h7.82Z"/><path class="cls-10" d="M193.93,455.83H190v40.8H185.4v-40.8h-5.1l1.81-5.41h11.82Z"/><path class="cls-10" d="M242.87,450.42l-5.63,46.21h-4.57l-5.34-46.21h5l2.72,32.26L238,450.42Z"/><path class="cls-10" d="M256.54,458.66c0-7,3.24-8.88,6.82-8.88,3.33,0,6.91,1.5,6.91,8.88v38H265.6V483.49h-4.34v13.14h-4.72Zm9.06-.52c0-2.54-.81-3.17-2.2-3.17s-2.14.75-2.14,3.17v20.11h4.34Z"/><path class="cls-10" d="M298.19,496.63H286.85V450.42h4.72V491.5h6.62Z"/></g></svg>