<svg xmlns="http://www.w3.org/2000/svg" xmlns:xlink="http://www.w3.org/1999/xlink" width="1369" height="767" viewBox="0 0 1369 767"><defs><style>.cls-1{fill:url(#linear-gradient);}.cls-2{fill:url(#linear-gradient-2);}.cls-3,.cls-6{fill:#f50;}.cls-3{opacity:0.29;}.cls-4{opacity:0.67;}.cls-5{fill:url(#linear-gradient-3);}.cls-6{opacity:0.27;}.cls-7{filter:url(#AI_GaussianBlur_7);}.cls-8{opacity:0.34;filter:url(#AI_Turbulence_5);}.cls-9{fill:#fff;}.cls-10{fill:#ff4800;}</style><linearGradient id="linear-gradient" x1="453.24" y1="-291.21" x2="686.92" y2="2.99" gradientTransform="translate(-167.53 459.74) rotate(10.94)" gradientUnits="userSpaceOnUse"><stop offset="0" stop-color="#f15a24"/><stop offset="0.06" stop-color="#c1481d"/><stop offset="0.13" stop-color="#8f3615"/><stop offset="0.2" stop-color="#63250f"/><stop offset="0.27" stop-color="#401809"/><stop offset="0.34" stop-color="#240e05"/><stop offset="0.41" stop-color="#110702"/><stop offset="0.48" stop-color="#050201"/><stop offset="0.56" stop-color="#010100"/><stop offset="1"/></linearGradient><linearGradient id="linear-gradient-2" x1="406.71" y1="-307.62" x2="679.88" y2="-48.97" gradientTransform="translate(-168.42 461.64) rotate(10.98)" gradientUnits="userSpaceOnUse"><stop offset="0" stop-color="#f7931e"/><stop offset="0" stop-color="#f4911e" stop-opacity="0.99"/><stop offset="0.04" stop-color="#c67618" stop-opacity="0.8"/><stop offset="0.09" stop-color="#9d5d13" stop-opacity="0.63"/><stop offset="0.14" stop-color="#77470e" stop-opacity="0.48"/><stop offset="0.19" stop-color="#57340b" stop-opacity="0.35"/><stop offset="0.25" stop-color="#3b2307" stop-opacity="0.24"/><stop offset="0.32" stop-color="#251605" stop-opacity="0.15"/><stop offset="0.39" stop-color="#140c02" stop-opacity="0.08"/><stop offset="0.49" stop-color="#090501" stop-opacity="0.04"/><stop offset="0.62" stop-color="#020100" stop-opacity="0.01"/><stop offset="1" stop-opacity="0"/></linearGradient><linearGradient id="linear-gradient-3" x1="-2404.7" y1="2320.38" x2="-2736.12" y2="2158.51" gradientTransform="translate(-1297.57 -2173.73) rotate(-90.48)" gradientUnits="userSpaceOnUse"><stop offset="0" stop-color="#f15a24"/><stop offset="0.15" stop-color="#af411a"/><stop offset="0.32" stop-color="#65260f"/><stop offset="0.47" stop-color="#2e1107"/><stop offset="0.58" stop-color="#0d0502"/><stop offset="0.64"/><stop offset="0.95"/></linearGradient><filter id="AI_GaussianBlur_7" name="AI_GaussianBlur_7"><feGaussianBlur stdDeviation="7"/></filter><filter id="AI_Turbulence_5" x="0" y="0" width="100%" height="100%" name="AI_Turbulence_5"><feTurbulence result="turb" baseFrequency="0.4" numOctaves="4" type="fractalNoise"/><feComposite operator="in" in="turb" in2="SourceAlpha"/></filter></defs><g id="Layer_10" data-name="Layer 10"><rect y="-0.83" width="1369" height="768"/><path class="cls-1" d="M629.52,392.72a106.17,106.17,0,0,0,2.4-38.63c-3.58-32.94-19.46-56-27.14-66.82-7.42-10.49-21-29.23-46-44-46.63-27.61-93.27-18-101.35-15.73a79.83,79.83,0,0,0-15,5.85c-9.35,5.09-8.85,7.9-14.87,10.05-4.35,1.56-12,.25-27.16-2.47-9.5-1.7-14.25-2.56-17.7-3.7-9.81-3.26-12.53-6.36-16.62-4.81-4.76,1.81-8.17,8.72-8.07,14.48.08,4.65,2.44,7.6.56,10C357,259,353.57,259,353,259c-3.86-.08-4.88-2.84-8.18-3.08-3.5-.25-6.37,2.58-8,4.15-5.59,5.51-4,11.4-8.17,12.89-2.59.94-3.51-1.25-7.67-.63-3.16.48-7.05,2.4-8.73,5.75-1.82,3.64.59,5.72-1,8.75-1.86,3.52-6.58,3.31-11.71,5.12-6,2.12-13.63,6.84-16.14,12-5.27,10.87,9.41,28.8,26.76,50,7.62,9.3,11.42,13.95,11.82,14.32,5.4,5.08,9.87,7.73,9.46,11.46-.19,1.76-1.39,2.89-5.44,6.28-6.46,5.4-9.69,8.09-11.61,9.34-3.69,2.38-4.78,3.62-22.85,20.28-16.55,15.24-24.78,22.91-27,24.59-11,8.23-30.39,15.22-66.71,8.19-7.48,37,3.46,58.86,8.4,67,17.52,29,53.52,41.68,92.17,55.3,9,3.18,16.7,5.45,22.17,7,16.21-18.15,30.6-32.27,41.07-42.08,30.36-28.45,46-42.83,69.12-50.82,11.45-3.95,24.22-5.16,49.75-7.59,48.68-4.62,49.08,1.59,67.92-3.13C586.39,464.59,619.76,430.64,629.52,392.72Z"/><path class="cls-2" d="M630,393a106.12,106.12,0,0,0,2.43-38.63c-3.56-32.95-19.42-56-27.09-66.84-7.41-10.5-21-29.24-46-44.07C512.71,215.76,466.06,225.33,458,227.6a80.25,80.25,0,0,0-15,5.84c-9.36,5.08-8.86,7.89-14.88,10-4.35,1.56-12,.23-27.15-2.49-9.51-1.72-14.26-2.57-17.7-3.72-9.82-3.27-12.53-6.37-16.62-4.82-4.77,1.8-8.18,8.71-8.08,14.47.07,4.65,2.43,7.6.55,10-1.62,2.09-5,2.07-5.54,2.06-3.86-.08-4.88-2.84-8.18-3.08-3.5-.25-6.38,2.58-8,4.14-5.6,5.51-4.06,11.4-8.19,12.89-2.58.93-3.5-1.26-7.66-.64-3.16.47-7.06,2.4-8.74,5.75-1.82,3.63.58,5.71-1,8.75-1.86,3.52-6.58,3.3-11.71,5.11-6,2.11-13.63,6.82-16.15,12-5.28,10.86,9.39,28.8,26.72,50,7.61,9.31,11.41,14,11.81,14.33,5.39,5.09,9.86,7.74,9.45,11.47-.2,1.76-1.39,2.89-5.45,6.28-6.46,5.39-9.7,8.08-11.61,9.32-3.69,2.39-4.78,3.62-22.87,20.27C281.82,425,276.06,433.46,265,440.19a93.93,93.93,0,0,1-32.09,11.7,96.83,96.83,0,0,1-28,.69c-8.85,41.82,5.29,64.69,9.8,71.18,16.08,23.12,45.68,33.52,84,47,9.17,3.22,16.9,5.51,22.16,7,16.23-18.13,30.64-32.25,41.11-42.05,30.38-28.42,46-42.79,69.17-50.76,11.45-3.94,24.22-5.14,49.75-7.55,48.69-4.58,49.07,1.63,67.92-3.08C586.76,464.8,620.16,430.87,630,393Z"/><path class="cls-3" d="M515.41,186.84a292.08,292.08,0,0,0-132.34,23.5,288.5,288.5,0,0,0-115.54,91.23,141.1,141.1,0,0,0,35.71,40.77,142.63,142.63,0,0,0,39.21,21.43c34.41,4.29,90.5,6.49,154.05-13.82a350.82,350.82,0,0,0,75.63-34.56Z"/><path class="cls-4" d="M423.41,245.12c2.12.92,23.78,10.77,28.12,33.67a44.94,44.94,0,0,1-4.46,28.68,73.74,73.74,0,0,1-20.27-30.69A72.44,72.44,0,0,1,423.41,245.12Z"/><path class="cls-4" d="M314.79,252.15c2.56-2.25,5.35-4.57,8.41-6.91,3.38-2.58,6.67-4.88,9.8-6.91a136.52,136.52,0,0,1,11.9,46.3c1.34,18.32-1.28,35.18-3.5,35.25-2.46.08-1.68-20.65-13.3-45.61A123,123,0,0,0,314.79,252.15Z"/><path class="cls-5" d="M1056,400.63a28.27,28.27,0,0,1,2-12.7c3.21-7.46,8.3-9.27,13-14.23,9.88-10.3,13.79-29.49,7.06-37.59-5.81-7-16.6-2.19-22-10.74-2.89-4.6-1.52-8.76-6-12.05a73.15,73.15,0,0,0-8.78-4.79c-2.77-1.35-3.12-1.39-3.89-2.12-2.17-2.06-1.68-3.93-4.13-8.53-1.18-2.2-1.76-3.3-2.82-4.05-2-1.41-3.6-.87-7.9-1.8-3-.66-4.58-1-5.42-1.7-3.29-2.79.58-8.7-.25-17.72-.12-1.32-1.32-12.86-7.82-15.57-3.58-1.49-5.72,1-13.08,2.91-6.1,1.62-6.66.47-29.42.28-12.14-.11-14,.2-16.88-1.67-5.49-3.61-3.79-8.17-9.34-15.14-5.39-6.79-12.59-9.52-20.9-12.66-5.56-2.11-7.52-2.11-21.21-5.3-11.72-2.72-18.23-4.57-21.21-5.29-15.28-3.71-41.47-3.1-63.48,4.3-36.54,12.28-55.8,41.33-66.72,57.79-13.8,20.8-36.87,55.6-28.66,101.16,6.73,37.33,31.79,67,59.35,82.61,38.68,21.9,86.08,18.25,101.59,14a37,37,0,0,1,11-1.52c9.15.17,18.37,4,34.65,17.65A210.92,210.92,0,0,1,950.24,521a455,455,0,0,1,44,64.61l156.66-45.21,2.1-82.94a121.42,121.42,0,0,1-28.93-4.93c-19.18-5.71-31.38-14.52-43.3-23.29C1057.56,412.14,1056.25,403.15,1056,400.63Z"/><path class="cls-6" d="M871.5,197.05a291.25,291.25,0,0,1,126.81,44.16,286.6,286.6,0,0,1,99.2,108.34,142,142,0,0,1-41.87,34.59,143.51,143.51,0,0,1-42.19,14.94c-34.66-1.21-90.38-7.93-149.81-38a348.37,348.37,0,0,1-69-46.09Z"/><path class="cls-4" d="M952.16,260.11c-2.24.57-25.23,6.86-33.23,28.78a44.9,44.9,0,0,0-.27,29,74.06,74.06,0,0,0,25-27.07A72.8,72.8,0,0,0,952.16,260.11Z"/><path class="cls-4" d="M1047,280.12q4.49,4.78,9,9.86,4.76,5.31,9.21,10.53a236,236,0,0,1-38.84,17.87c-17.25,6.11-34.24,9.87-35,7.94-.82-2.15,19.86-8,39.58-27A112.82,112.82,0,0,0,1047,280.12Z"/><g class="cls-7"><path d="M1271.38,453c-13.64-10.41-29.83-10.93-137,13.38-89.47,20.29-134.24,30.63-135.92,40.55-7.08,41.93,204.43,154.47,274,90.17C1309.05,563.34,1307.17,480.32,1271.38,453Z"/></g><g class="cls-7"><path d="M113.22,425.24c14.47-9.23,30.64-8.38,135.38,24.86,87.44,27.75,131.18,41.83,132,51.85,3.54,42.38-216.7,136.71-280.66,66.78C66.39,532,75.25,449.47,113.22,425.24Z"/></g><g class="cls-8"><rect class="cls-9" y="0.15" width="1369" height="767.37"/></g><path class="cls-10" d="M613.3,587.48h-6.79v-140h6.79Z"/><path class="cls-10" d="M583.62,447.88,575.36,504h-6.72l-7.84-56.14h7.35l4,39.2,4.27-39.2Z"/><path class="cls-10" d="M653.13,504H636.47V447.88h6.93v49.91h9.73Z"/><path class="cls-10" d="M674.62,447.88h8.54c9,0,11.62,3.36,11.62,14V490c0,10.71-2.66,14-11.62,14h-8.54ZM688,458.73c0-3.5-.77-4.27-4.55-4.27h-1.89v43.05h1.89c3.78,0,4.55-.84,4.55-4.27Z"/><path class="cls-10" d="M736.85,492.19c0,9-1.68,15-18.41,11.62v-6.65c10.15,2.24,11.48,0,11.48-4.27V488H718.44V459.71c0-9,1.75-15,18.41-11.62v6.65c-10.15-2.24-11.48,0-11.48,4.27v22.75h11.48Z"/><path class="cls-10" d="M773.88,447.88h6.79V469.3c0,8.33-1,11.55-4.13,13.93h4.13v11.48c0,7.42,2.66,9.31,2.66,9.31h-6.79s-2.66-.91-2.66-9.31v-6.65h-6.44v16h-6.93V447.88h6.93v33.81h1.61c3.5,0,4.83-3.5,4.83-10.85Z"/><path class="cls-10" d="M824.35,448v46.13c0,8.82-5.39,10.78-10.15,10.78-5.25,0-10-2.24-10-10.78V448h6.93v46.69c0,2.94,1,3.85,3.15,3.85s3.15-.84,3.15-3.85V448Z"/><path class="cls-10" d="M848.71,447.88h8.54c9,0,11.62,3.36,11.62,14V490c0,10.71-2.66,14-11.62,14h-8.54Zm13.37,10.85c0-3.5-.77-4.27-4.55-4.27h-1.89v43.05h1.89c3.78,0,4.55-.84,4.55-4.27Z"/><path class="cls-10" d="M458.73,565h10.15v6.37H458.73v16H451.8v-16h-5.53l2.66-6.37h2.87V543c0-9,.35-14.91,17.08-11.62V538c-10.15-2.24-10.15,0-10.15,4.27Z"/><path class="cls-10" d="M497.72,576.3c0,4.27,1.33,6.51,11.48,4.27v6.65c-16.66,3.36-18.41-2.66-18.41-11.62V543c0-9,1.75-14.91,18.41-11.62V538c-10.15-2.24-11.48,0-11.48,4.27V565H507.8v6.37H497.72Z"/><path class="cls-10" d="M550.08,575.53c0,9-1.68,15-18.41,11.62V580.5c10.15,2.24,11.48,0,11.48-4.27v-4.9H531.67V543.05c0-9,1.75-15,18.41-11.62v6.65c-10.15-2.24-11.48,0-11.48,4.27V565.1h11.48Z"/><path class="cls-10" d="M588.86,537.8h-5.74v49.56h-6.79V537.8h-7.49l2.66-6.58h17.36Z"/><path class="cls-10" d="M660.75,531.22l-8.26,56.14h-6.72l-7.84-56.14h7.35l4,39.2,4.27-39.2Z"/><path class="cls-10" d="M680.83,541.23c0-8.54,4.77-10.78,10-10.78,4.9,0,10.15,1.82,10.15,10.78v46.13h-6.86v-16h-6.37v16h-6.94Zm13.31-.63c0-3.08-1.19-3.85-3.22-3.85s-3.15.91-3.15,3.85V565h6.37Z"/><path class="cls-10" d="M742,587.36H725.36V531.22h6.93v49.91H742Z"/></g></svg>