<svg xmlns="http://www.w3.org/2000/svg" width="473.12" height="289.41" viewBox="0 0 473.12 289.41"><defs><style>.cls-1{fill:#ff4800;}</style></defs><g id="Layer_2" data-name="Layer 2"><path class="cls-1" d="M-12.81,133.05c2.86,4.19,8,5.48,12.81,5.92,7.84.72,15.91-.6,23.6-2.06,26.4-5,52.13-14,77.51-22.64,37.24-12.71,74.17-26.3,111.2-39.59q42.49-15.24,85.11-30.14Q352.91,25.16,408.57,6.33l15.36-5.18-1.84-1q12.57,31,25.16,61.9l1.44-1.9c-13.31-1-26.76,13.07-21.41,26.39,4.6,11.48,20.5,16.08,30.84,9.79l-2.2-.9a263.57,263.57,0,0,0,29.43,67.4l.89-2.2-143,49.76-143,49.76-80.91,28.16,1.85,1.05a254.93,254.93,0,0,0-34.72-76.76l-1.7,2.2c13,2.83,27.14-8.68,26.69-22.15-.43-12.92-14.16-19-25.52-17.27-6.35,1-12.35,4.36-15.41,10.16l2.75.36L56.57,144.2l-1,1.85,122.14-42.19L299.8,61.67,368.39,38l-1.85-1.84a126.92,126.92,0,0,0,6.09,60.79,134.73,134.73,0,0,0,27.59,45,144.9,144.9,0,0,0,13.83,13.2l.66-2.5A868.5,868.5,0,0,0,312.94,181,852.47,852.47,0,0,0,201.8,228.44q-27.06,13.91-53.07,29.72l2.26,1.3a160.61,160.61,0,0,0-8.24-65.75,177.72,177.72,0,0,0-32.23-55.57c-22.18-26.21-55.84-51.75-92.2-46.71-10,1.38-19.9,5.34-26.1,13.61-5.3,7.07-10.26,19.66-5,28,1,1.63,3.62.13,2.59-1.51-4.61-7.37.37-18.86,5-25C.35,99.27,9.29,95.82,18.09,94.47c14.89-2.28,29.72,1.16,43.14,7.68,17.16,8.36,32.11,21,44.69,35.24a176,176,0,0,1,32.22,52.47,158.16,158.16,0,0,1,9.85,69.6,1.52,1.52,0,0,0,2.26,1.3,846.19,846.19,0,0,1,210.82-91.71q27-7.63,54.43-13.49a1.51,1.51,0,0,0,.67-2.51c-25.53-21.38-43.52-51.54-47.21-84.92a126.18,126.18,0,0,1,.47-31.19c.15-1-.64-2.27-1.84-1.85L245.45,77.28,123.31,119.47,54.72,143.16a1.52,1.52,0,0,0-1,1.84l16.71,41.65c.44,1.1,2.09,1.61,2.74.36,4.62-8.77,16.52-10.83,25.19-7.52,4.61,1.76,8.5,5.34,9.74,10.22,1.45,5.65-1,11.63-4.77,15.8-4.48,4.9-11.07,7.79-17.71,6.35-1.19-.26-2.47,1-1.69,2.2a252.49,252.49,0,0,1,34.41,76,1.51,1.51,0,0,0,1.85,1l143-49.76,143-49.76L487,163.47a1.52,1.52,0,0,0,.9-2.2,260.62,260.62,0,0,1-29.13-66.69,1.52,1.52,0,0,0-2.2-.9c-8.68,5.29-22.22,1.64-26.4-7.9-5-11.55,7.16-23.56,18.48-22.68a1.5,1.5,0,0,0,1.45-1.89Q437.56,30.25,425-.69a1.54,1.54,0,0,0-1.85-1Q366.46,17.34,310,37q-43.1,15-86.07,30.35c-35.7,12.76-71.3,25.82-107.09,38.33-27.33,9.55-54.85,19.24-83,26-8.79,2.1-17.77,4-26.83,4.44-5,.23-11.27.35-15.47-2.8a8.43,8.43,0,0,1-1.69-1.74C-11.3,130-13.9,131.45-12.81,133.05Z"/></g></svg>