<svg xmlns="http://www.w3.org/2000/svg" width="333" height="305.22" viewBox="0 0 333 305.22"><defs><style>.cls-1{fill:#ff4800;}</style></defs><g id="Layer_2" data-name="Layer 2"><path class="cls-1" d="M264.32,103.14a89.14,89.14,0,0,1-3.06-25.28,81.7,81.7,0,0,1,6.07-28.17,78.59,78.59,0,0,1,9.61-18c3.55-4.75,8.84-9.74,15.21-7.59,6.08,2.05,10.71,8,14,13.25,3.95,6.34,7,13.71,7.74,21.2.54,5.56-.24,11.61-4.91,15.26-4.06,3.18-9.58,4.38-14.6,4.94-13.72,1.53-28.12-.92-41.19-5.12a71.86,71.86,0,0,1-17-7.64c-3.31-2.13-7.13-5.11-8-9-.48-2,.35-4.55,1.44-6.52a29.56,29.56,0,0,1,6.37-7.59A51.07,51.07,0,0,1,257.6,31.52c7.72-1.86,16.07-1.56,22.94,2.76,6,3.75,10.19,9.92,12.75,16.4A49.59,49.59,0,0,1,296.67,72c-.39,6.15-2.05,12.82-6.28,17.5-5.95,6.61-16.17,7.24-24.23,4.84a24,24,0,0,1-16.09-15.39c-2.7-7.56-2.73-16-1.33-23.8a63.39,63.39,0,0,1,9.56-24c8.15-12.19,25.28-26.16,40.23-17,14.42,8.8,19.6,32,7.37,44.57-5.45,5.63-13.14,8.52-20.72,9.8a50,50,0,0,1-22.84-1.21,29.26,29.26,0,0,1-13.15-7.75c-3.81-4.14-5.41-9.69-5.5-15.23-.14-8.6,3.46-16.76,9.18-23.09C264.51,8.22,284.18,2.27,300.5,9.36c15.78,6.86,26,23.69,26.45,40.69.47,19.63-13.23,35-28.6,45.38a206.25,206.25,0,0,1-26.51,14.68q-17.19,8.27-34.58,16.14-35.14,16-70.9,30.63Q149,164,131.55,170.75l1.46,2.5q37-37.87,72.35-77.37,9.94-11.1,19.73-22.34l-2.35-.3a170.4,170.4,0,0,0,39.15,43.11l.66-2.5a332.36,332.36,0,0,0-67.67,20.53,189.4,189.4,0,0,0-17.55,8.39c-6.4,3.52-12.64,7.34-18.85,11.2-20.33,12.66-40,26.47-60.93,38.13-8.63,4.81-17.69,9.42-25,16.2a44.86,44.86,0,0,0-12.88,22.4,34.21,34.21,0,0,0,.37,18.45,37.13,37.13,0,0,0,6.22,11.42,53.27,53.27,0,0,0,22.35,16.32c7.72,3.05,16.84,4.53,24.87,1.73,8.2-2.85,13.59-10.1,16.39-18.06,2.72-7.75,3.39-17,0-24.66-3.85-8.53-13-10.86-21.69-10a51.23,51.23,0,0,0-28.86,13c-7.22,6.69-11.84,15.47-15.91,24.3-3.86,8.35-7.4,17.24-13.53,24.25-5.72,6.53-14.35,11.73-23.27,11.36a26.66,26.66,0,0,1-12.81-3.83,15.38,15.38,0,0,1-6.09-8.19c-3.38-9.59-2-20.69.3-30.36a118.35,118.35,0,0,1,6.33-19.21c.74-1.76-1.84-3.29-2.59-1.51-4.81,11.37-8.44,23.52-8.9,35.93C2.51,279.58,3.39,289,9,295c3.14,3.37,7.86,5.2,12.28,6.14a27.47,27.47,0,0,0,10.84.25c8.78-1.59,16.53-7.33,21.85-14.32,5.6-7.35,9-16.08,12.9-24.37,4.1-8.7,8.93-17.17,16.46-23.37,7.87-6.47,18.79-10.8,29.05-10.61,4.25.07,8.76,1.09,11.85,4.2a17.74,17.74,0,0,1,4.46,9.58,34.9,34.9,0,0,1-5.26,24.36c-4.54,6.94-11.7,10.35-19.92,10.17-8.86-.2-17.55-3.81-24.74-8.82S65.12,256,62.66,247.42c-2.78-9.74.11-20.66,5.39-29.08,4.89-7.8,12.57-13.06,20.37-17.64,10.29-6.06,20.82-11.6,30.86-18.09s20.24-13.08,30.4-19.55c12-7.63,24-15.58,36.92-21.72A308.69,308.69,0,0,1,244,121q9.63-2.43,19.36-4.29a1.51,1.51,0,0,0,.67-2.51,168.3,168.3,0,0,1-38.68-42.51,1.52,1.52,0,0,0-2.36-.3q-34.82,39.9-71.35,78.24-10.31,10.8-20.73,21.47c-1,1,0,3.08,1.45,2.51q38.52-14.94,76.41-31.43,18.84-8.21,37.5-16.79c11.65-5.36,23.35-10.69,34.78-16.51,18.26-9.29,37.46-21.34,45.64-41.06,7.09-17.08,2.19-37.52-10.29-50.81a42.92,42.92,0,0,0-23.8-13.15,45.49,45.49,0,0,0-27,4.13,46,46,0,0,0-20.1,18.2c-4.9,8.53-6.54,19.47-2.66,28.72,4.14,9.88,14.75,15,24.83,16.56a55.89,55.89,0,0,0,24-1.48c8-2.3,15.57-6.75,20-13.93,4.94-8,5.15-18.11,2.1-26.81-2.95-8.43-9-16.29-17.44-19.68-9.28-3.71-19.18,0-26.81,5.59-13.8,10.19-22.24,26.19-24.25,43.12-1,8.31-.32,17.14,3.33,24.78a27.15,27.15,0,0,0,19.85,14.85c8.68,1.67,18.84.09,24.71-7.08,4.42-5.41,6.2-12.54,6.56-19.4.78-14.78-5-32.35-18.35-40.2-15.31-9-35.89-1.2-48,9.86-4.31,3.94-9.4,10-8.27,16.28.84,4.63,5,8.11,8.67,10.6a71,71,0,0,0,18,8.3,121.18,121.18,0,0,0,22.58,5,83.64,83.64,0,0,0,21.73.2c5.51-.76,11.32-2.32,15.59-6.08,4.95-4.36,5.87-11.34,5.14-17.58a54.2,54.2,0,0,0-8.46-22.65c-3.7-5.77-8.84-12-15.61-14.1-7.06-2.23-13.21,2.5-17.38,7.77-4.61,5.82-7.9,12.61-10.68,19.47a84.56,84.56,0,0,0-6.39,29.51,92.24,92.24,0,0,0,3.16,26.08,1.51,1.51,0,0,0,2.9-.8Z"/></g></svg>