<svg id="Layer_1" data-name="Layer 1" xmlns="http://www.w3.org/2000/svg" width="400.49" height="331.01" viewBox="0 0 400.49 331.01"><defs><style>.cls-1{fill:#ff4800;}</style></defs><path class="cls-1" d="M51.9,290.62c.65-11,1.37-22,2.4-33,.41-4.34,1.17-8.73.7-13.09a26.09,26.09,0,0,0-6.5-14.44c-3.76-4.38-8.16-8.22-12.14-12.39q-6.28-6.59-12.09-13.58T13.16,189.76c-3.35-4.67-7-9.44-9.51-14.64-2.12-4.4-3.36-11.37,2.67-13.25,5.08-1.57,10,1.68,13.42,5.11,2,2,3.83,4.25,5.83,6.29,1.66,1.69,3.6,3.69,6,4.25,4.73,1.11,7-3.86,7.67-7.63,2.22-12.17,1.19-24.6.3-36.85-.45-6.21-.88-12.43-.84-18.66,0-5.9.26-12.16,1.93-17.85.61-2.08,1.63-4.49,3.72-5.48a4.38,4.38,0,0,1,5.19,1.18c3.07,3.21,3.84,8.27,4.07,12.51q1.08,20.13,2.15,40.26l.53,9.87a1.51,1.51,0,0,0,2.79.76c9.71-18.21,4.13-39.27,7.09-58.79A57.8,57.8,0,0,1,67.62,90c.67-2.38,1.38-5,3-7,4.74-5.72,6.8,5.75,7.37,8.77,2.14,11.39.66,23.12-.37,34.54a142.66,142.66,0,0,0-.86,19.16c.17,3.65,1.34,8.61,5.64,9.25a1.52,1.52,0,0,0,1.89-1.44q1.47-13.65,2.92-27.31.75-7,1.51-14c.45-4.22.7-8.51,1.43-12.7.61-3.52,1.91-7.5,5.66-8.72a5.09,5.09,0,0,1,4,.16c1.78,1,2,3.2,2.09,5,.3,9.11,0,18.28,0,27.39v31.73a1.43,1.43,0,0,0,.74,1.29c5.41,2.5,8.45-3.9,9.1-8.3.56-3.78.18-7.78.27-11.6q.15-6.59.56-13.16c.27-4.38.64-8.76,1.08-13.13.33-3.15.53-6.63,2.25-9.4,1.58-2.57,4.61-3.16,6.52-.59,1.74,2.34,2.16,5.57,2.31,8.4,1,17.75,1.84,35.5,2.75,53.25.9,17.5,2.92,35.5.23,52.92a100,100,0,0,1-20.52,46.85h2.12c-4.73-3.68-5.53-11.67-.84-15.78,4.31-3.78,12-2.64,15.09,2.11,2,3,2.16,6.86,3.2,10.22a13.06,13.06,0,0,0,5.07,7.32c4.66,3.1,11.22,2.54,15.92-.15,9.92-5.68,12.52-19.51,13.89-30a77.74,77.74,0,0,0-5.83-41.37,80.62,80.62,0,0,0-26.14-32.16l.75,1.3-2-39.23-2.26,1.29q8.76,6.28,17.51,12.58a1.51,1.51,0,0,0,2.26-1.3Q143.39,91.63,144,46.94c.11-7.26,0-14.6.52-21.85.22-3,1.42-5.51,4.66-6a8.31,8.31,0,0,1,7.16,2.67,21,21,0,0,1,4.34,8,85.78,85.78,0,0,1,2.73,9.87A89.25,89.25,0,0,1,165.34,61c-.45,15.58-4.05,31.31,0,46.71a1.51,1.51,0,0,0,1.85,1C178.59,104,176.85,89,176.32,79a290.45,290.45,0,0,1,1.76-50.55c.82-6.68,1.39-14.13,4.73-20.14,1.45-2.6,3.9-5.55,7-6.2,3.53-.73,5.15,6.08,5.85,8.49,2.15,7.38,2.21,15.14,2.11,22.76-.12,8.47-.28,16.94-.42,25.41-.15,9.08-.71,18.26-.38,27.34.23,6,1.59,13,7.47,15.93a1.51,1.51,0,0,0,2.25-1.3q.59-22.06,1.15-44.15.28-10.84.56-21.68c.09-3.47.08-6.95.33-10.41.24-3.18.86-6.66,3.08-9.1,2-2.19,5.19-3.56,8-1.93,2.5,1.48,3.9,4.53,5,7.09a47.37,47.37,0,0,1,3.63,16c.74,11.08-1,22.15-1.85,33.17-.91,12.06-.68,24.5,5.06,35.44.66,1.25,2.31.75,2.75-.36,7-17.64,1.06-36.84.29-55-.37-8.84.48-17.94,5.12-25.68,1.25-2.09,2.92-4.77,5.55-5.17,1.95-.3,3.59.92,4.74,2.37,2.91,3.69,3.47,8.6,4.13,13.08,3.55,24.27,4.2,48.88,4,73.38-.08,12.09-.32,24.19-.65,36.28s-1.4,23.85-5.88,35.13c-4.16,10.48-10,20.19-14.18,30.69a135.56,135.56,0,0,0-8.39,32.85c-1.18,9.29-1.25,20.41,5.83,27.55,5.92,6,16,7.92,22.18,1.24,3-3.23,4.57-7.53,5.91-11.65,1.14-3.49,2.13-8,.15-11.39s-6.45-4-9.62-1.74a12.51,12.51,0,0,0-5,10.39c0,8.34,6.31,15.55,13.77,18.59,8.33,3.39,17.42.8,23.83-5.21a30.9,30.9,0,0,0,9.52-24c-.53-9.78-5.21-18.32-12.43-24.78-6.53-5.85-15-10.59-19-18.71-1.8-3.65-3-9.85,1.46-12.2s9.93,1.48,13,4.59c3.23,3.31,6.11,7,10.36,9.08a1.52,1.52,0,0,0,2.26-1.29,508.74,508.74,0,0,1-.78-59.86c.16-3.39,0-7.86,2.28-10.65,2.56-3.07,6.06-1.32,8,1.33a22.55,22.55,0,0,1,3.77,10q1.27,7.45,2,15a207.09,207.09,0,0,1,.38,33.32,1.51,1.51,0,0,0,2.79.76c8.77-16.79,4.83-36.14,6.31-54.24a69.66,69.66,0,0,1,.94-7.19c.38-2,.77-5,3.19-5.55,5-1.11,6.72,5.12,6.71,8.76,0,5.3-.79,10.66-1.23,15.94q-.69,8.15-1.39,16.3c-.64,7.63-.66,17.58,6.93,21.92a1.52,1.52,0,0,0,2.25-1.3l3.78-28.41q.93-7,1.87-14l.88-6.61a36.77,36.77,0,0,1,1.05-6.45c.35-1.08,1.06-3,2.34-3.37,2.13-.55,2.82,3.38,3.15,4.73a51.28,51.28,0,0,1,1.33,11.65c.1,7.82-.94,15.6-1.19,23.42-.26,8.43.55,16.93,4.63,24.46a1.52,1.52,0,0,0,2.59,0c6.39-8.44,5.77-19.49,5.06-29.49-.72-10.15-2.06-21.55,4.45-30.22l-2.36.31c6.71,5.41,7.26,14.66,7.18,22.65-.1,11-.55,22.1-.83,33.14-.29,11.26-.5,22.54-.88,33.8-.18,5.34-.62,10.81-3.15,15.63-2.12,4-5.22,7.43-7.84,11.14-5.66,8-6.88,17.25-6.07,26.83.41,4.7,1.12,9.39,1.95,14,.76,4.23,1.83,8.62,4.32,12.2,9.87,14.21,33.8,8,42.46-4.34,4.62-6.57,4.44-14.54.26-21.3-3-4.83-8.25-9.26-14.28-8.28-4.55.74-8.31,4.19-11.48,7.3-5,4.95-9.6,10.35-14.57,15.36-20,20.19-46.32,33.86-74.84,36.66a102.58,102.58,0,0,1-54-9.41,119.89,119.89,0,0,1-32-22.36c-1.38-1.34-2.74-2.72-4.06-4.12s-3.44.72-2.12,2.12c18.57,19.7,43.36,33.64,70.47,36.65s55.47-5.11,78.09-20.23a134.4,134.4,0,0,0,20.35-17c4.9-4.93,9.41-10.23,14.33-15.14,2.92-2.9,6.61-6.67,11-7,6.38-.46,11.23,6.63,12.75,12,4.93,17.54-21.09,29-34.61,22-8.42-4.34-9.2-15.1-10.37-23.43-1.32-9.38-1.92-19.6,3-28.08,2.25-3.85,5.28-7.15,7.78-10.82a30.19,30.19,0,0,0,5-12.92,133.25,133.25,0,0,0,.79-15.21l.42-16.62q.44-16.62.86-33.24c.21-8.34,1.1-17.35-1.78-25.36a19.68,19.68,0,0,0-6-8.82,1.54,1.54,0,0,0-2.36.31c-6.36,8.47-5.73,19.52-5,29.52.72,10.15,2,21.55-4.49,30.19H354c-8.48-15.67-1.83-34.39-3.26-51.19-.33-3.81-.77-8.25-2.59-11.68-1.48-2.8-4.86-3.93-7.35-1.68-2.69,2.43-3,6.32-3.44,9.67l-2.13,16q-2.32,17.52-4.66,35l2.26-1.3c-7.78-4.44-5.7-16.25-5.07-23.59l1.44-17.08c.42-4.89,1.49-10.25.4-15.12a9.27,9.27,0,0,0-7.42-7.49c-4.34-.69-6.85,2.53-7.71,6.43-2.12,9.64-1.68,19.66-1.64,29.47,0,11.07-.32,22.49-5.56,32.53l2.8.75a207.09,207.09,0,0,0-.38-33.32q-.75-8.12-2.14-16.16A24.23,24.23,0,0,0,303.18,132c-1.89-2.46-4.62-4.45-7.86-4-3.67.49-5.9,3.52-6.83,6.88-1.18,4.29-1,9.05-1.13,13.45q-.3,8.41-.33,16.83-.06,19,1.32,38l2.25-1.3c-8.07-3.92-11.82-14.82-22-14.75a8.75,8.75,0,0,0-8.53,6.57c-1.06,4,.18,8.26,2.14,11.77,4.09,7.33,11.45,11.93,17.67,17.25,7.56,6.46,12.72,14.86,12.86,25.06.12,8.9-4.16,18-11.64,23A18.9,18.9,0,0,1,257.4,269a16.94,16.94,0,0,1-5.77-10.93,10.82,10.82,0,0,1,1.12-6.08c1-1.8,3-4,5.26-3.79,4.66.45,3.22,7.21,2.36,10-1.26,4.17-2.88,8.85-6.18,11.86s-8.07,3.18-12.08,1.42a16.8,16.8,0,0,1-8.94-9.78c-1.78-4.83-1.88-10.09-1.48-15.17a115.74,115.74,0,0,1,2.58-16.13,142.07,142.07,0,0,1,11.3-31.4c4.8-9.79,10.05-19.48,12.47-30.21,2.46-10.89,2.47-22.14,2.71-33.24.27-11.89.5-23.78.49-35.68,0-23.34-1-46.79-4.69-69.87-1-6.09-5.23-17.13-13.45-13.65-3.94,1.67-6.35,6.36-8,10.09a41.71,41.71,0,0,0-3.07,11.34c-2.36,17.94,4,35.73,2.31,53.69a45,45,0,0,1-2.92,12.37l2.74-.35c-5.58-10.64-5.51-22.85-4.6-34.53s2.87-23.64,1.54-35.46c-.89-8-5.26-28-17.3-23.24-5.92,2.33-7.76,8.65-8.14,14.45-.49,7.53-.44,15.14-.63,22.68q-.7,26.61-1.39,53.22l2.26-1.29c-5.64-2.84-6-10.19-6-15.75,0-8.57.28-17.15.42-25.72s.34-17.33.42-26c.07-7.41-.13-15-2.23-22.17-.89-3.06-2.06-6.94-4.38-9.25s-5.45-1.62-8-.13c-5.2,3.09-7.69,9-9,14.66-1.79,7.6-2.47,15.59-3.15,23.36-.74,8.47-1.11,17-1.11,25.48q0,7.16.36,14.3c.19,3.74.54,7.48.48,11.23-.11,5.94-1.13,13.81-7.41,16.41l1.85,1.05c-3.91-15-.35-30.4.13-45.54a92.58,92.58,0,0,0-1.86-21.78c-1.3-6.29-2.93-13.59-7-18.74-3.14-4-8.71-6.21-13.51-3.78a8.11,8.11,0,0,0-4.25,6.36,90.23,90.23,0,0,0-.44,10.91q-.59,23.89-.27,47.82.36,27.06,1.87,54.1l2.26-1.29-17.52-12.58a1.5,1.5,0,0,0-2.25,1.3q.8,15.69,1.61,31.38c.12,2.35.2,4.71.36,7.06.12,1.88,1.08,2.27,2.46,3.35a81.46,81.46,0,0,1,6.44,5.6,74.92,74.92,0,0,1,22.61,45.39,77.46,77.46,0,0,1-.58,20.85c-1,6.18-2.4,12.69-5.52,18.16-3.51,6.17-11,11.26-18.18,7.9-3.83-1.78-4.91-5.68-5.78-9.49-.81-3.55-1.71-7.23-4.45-9.83-5-4.74-13.94-5.12-18.74.12-4.93,5.41-4.24,14.82,1.55,19.33a1.53,1.53,0,0,0,2.12,0,103.17,103.17,0,0,0,20.11-41.89c3.85-17.4,2.34-35.27,1.43-52.9L128,113.46c-.28-5.47.16-14-5.36-17.36-5.8-3.49-10.1,2.88-11.19,7.82a99.16,99.16,0,0,0-1.46,13.33q-.61,7.53-.87,15.09-.13,3.87-.18,7.74a67.79,67.79,0,0,1-.09,6.84c-.21,1.92-1.67,8-4.7,6.6l.75,1.3V100.09a34.73,34.73,0,0,0-.31-7.21C103,85.51,93.82,86,90,91.2c-2.38,3.29-2.87,7.44-3.29,11.36q-.85,7.8-1.67,15.6-1.87,17.57-3.76,35.11l1.9-1.45c-4.74-.71-3.52-9.77-3.41-13,.18-5.92.78-11.82,1.32-17.72,1-11.42,1.87-23.18-1.18-34.39-1-3.62-2.84-9.52-7.85-8.27-4.33,1.09-6,6.31-7.16,10.07-2.94,9.93-2.74,20.45-2.7,30.7,0,11.83,0,24.16-5.73,34.87l2.8.76Q58.16,133.75,57,112.64c-.29-5.47-.08-11.22-1.91-16.46-1.23-3.5-3.48-7.56-7.43-8.4-4.41-1-7.81,2.37-9.34,6.17-2.15,5.37-2.41,11.8-2.59,17.51-.42,13,1.48,25.86,1.77,38.8.15,6.52,0,13.28-1.35,19.68-.46,2.16-1.7,5.73-4.59,4.43-2.59-1.17-4.72-4.06-6.58-6.13-3.5-3.89-7.18-7.89-12.43-9.23-4.27-1.09-9.14-.37-11.91,3.35-3.18,4.27-1.72,9.88.4,14.28C3.66,182,7.49,187,11,191.86A266.66,266.66,0,0,0,35,220.6c4.23,4.4,9.12,8.42,12.77,13.33A23.39,23.39,0,0,1,52,250.18c-.8,10.14-1.86,20.24-2.52,30.39-.22,3.35-.42,6.7-.62,10.05-.11,1.93,2.89,1.93,3,0Z"/></svg>