<svg xmlns="http://www.w3.org/2000/svg" width="415.25" height="318.92" viewBox="0 0 415.25 318.92"><defs><style>.cls-1{fill:#ff4800;}</style></defs><g id="Layer_2" data-name="Layer 2"><path class="cls-1" d="M3.34,158.91a242.14,242.14,0,0,1,61-11,225.66,225.66,0,0,1,44.76,2.18,219.12,219.12,0,0,1,24.46,5.15c3.85,1,7.63,2.32,11.47,3.42a162.36,162.36,0,0,1,23.88,9.15A214.71,214.71,0,0,1,264,255.49c7.48,13.05,16.09,29.24,11.45,44.69A26.41,26.41,0,0,1,264,315.36c-5.77,3.4-13.64,3.71-19-.7-5.69-4.68-5.41-12.93-2.26-19,3.48-6.68,10.24-10.88,16.66-14.35,12-6.47,24.2-12.45,36.09-19.08,23-12.79,45.76-27.51,62.76-47.87,8.38-10,15.68-21.64,19.68-34.17,2.41-7.54,2.41-15-.78-22.27-2.83-6.47-7.05-12.43-11.12-18.16a230.1,230.1,0,0,0-54.34-53.83C290.48,70.82,267,59,242.58,50a385,385,0,0,0-77.45-19.54q-19.63-2.89-39.47-4C111.3,25.57,95.22,24,83,33.05,77,37.54,72.18,43.46,67.41,49.2q-7.53,9.06-14.57,18.5A449.69,449.69,0,0,0,4.2,149.76C1,156.86-2.7,164.17-3.67,172c-.93,7.46,1.59,14.13,6.6,19.62,4.75,5.19,10.86,9.34,16.91,12.87a105.54,105.54,0,0,0,19.45,8.76,129.66,129.66,0,0,0,42.47,6.47c32.09-.27,63-11.31,91.63-24.93,30.33-14.4,59.31-31.57,87.53-49.72,27.41-17.64,54.41-36,81-55,22.21-15.84,44.25-33.13,60.2-55.56a114.19,114.19,0,0,0,17-34.68A1.52,1.52,0,0,0,417.2-2,232.25,232.25,0,0,0,335.68,33.8a240.84,240.84,0,0,0-62.52,63,226,226,0,0,0-23.35,44.52,1.52,1.52,0,0,0,1.05,1.85c4.38,1.4,10.12.26,13.15-3.38,2.65-3.2,1.94-8.46-1.94-10.37-4.09-2-9.21.65-12.5,3.07-5.18,3.81-8.22,9.62-11.7,14.89q-7.76,11.76-15.52,23.5c-1,1.51,1.12,2.83,2.36,1.82l29.59-24.44c1.49-1.23-.64-3.34-2.12-2.12q-14.79,12.22-29.6,24.43l2.36,1.82q6.85-10.36,13.69-20.73,3.44-5.18,6.85-10.36a23.69,23.69,0,0,1,5.55-6.17c2.63-2,9.73-6.07,11.42-.88,1.82,5.58-7.23,7.16-10.8,6l1,1.85a227,227,0,0,1,47.22-73.79A238.46,238.46,0,0,1,371,17a224.75,224.75,0,0,1,47-16L416.16-.93c-7.64,26.62-26,48.07-46.59,65.85C359,74,347.77,82.31,336.38,90.33c-13.07,9.2-26.26,18.24-39.46,27.24-27.85,19-56.08,37.4-85.44,54-28.64,16.15-58.58,31.65-90.62,39.82-29.14,7.43-60.93,8-88.95-4.11a97.37,97.37,0,0,1-18.77-10.71c-5.87-4.29-12-9.66-13.63-17.1-1.76-8.26,2.17-16.69,5.44-24.06s6.67-14.46,10.29-21.55A447.58,447.58,0,0,1,67.39,53.92C72.22,48,77,41.84,82.9,36.92c6.37-5.34,14-7.58,22.17-8a195.49,195.49,0,0,1,21.51.53q9.8.57,19.54,1.58a401,401,0,0,1,78.29,15.9A313.4,313.4,0,0,1,296.32,79.3a236.8,236.8,0,0,1,57.95,50q6.27,7.59,11.79,15.74c4.14,6.11,8.78,12.61,10.3,20,1.68,8.16-1.63,16.44-5.07,23.71a107.25,107.25,0,0,1-9.85,16.69C346,227,323.61,242.57,300.92,255.72c-11.61,6.73-23.52,12.91-35.44,19.06-11.73,6.06-26.37,13-27.88,27.85a16.09,16.09,0,0,0,7.61,15.79,19.93,19.93,0,0,0,17.8.81c12.17-5.24,17.65-19.26,16.42-31.77-1.47-15-9.8-28.95-17.67-41.44A216.93,216.93,0,0,0,238,215a218.6,218.6,0,0,0-49.46-40.09,198.41,198.41,0,0,0-36.15-17A240.62,240.62,0,0,0,105,146.52a236.57,236.57,0,0,0-78.67,3.27q-12,2.52-23.8,6.23c-1.84.58-1,3.47.8,2.89Z"/></g></svg>