<svg xmlns="http://www.w3.org/2000/svg" width="310" height="320" viewBox="0 0 310 320"><defs><style>.cls-1{opacity:0.7;}.cls-2{fill:#ff4800;}</style></defs><g id="Layer_11" data-name="Layer 11"><g class="cls-1"><path class="cls-2" d="M79.22,13.21h-74a3,3,0,0,0-2.89,2.21A144.07,144.07,0,0,0,1.46,52.7c.75,6.69,1.82,13.38,3.06,20A80.07,80.07,0,0,0,8.67,88.09a35.88,35.88,0,0,0,7.7,12.21,32.52,32.52,0,0,0,13.41,7.9c10.06,3.13,21.12,2,31.15-.64a94.15,94.15,0,0,0,19.81-7.4,3,3,0,0,0,.6-4.71c-14.71-14.41-39.52-19.1-57.11-7-14,9.62-21.09,29.19-14.67,45.28,7.38,18.49,27.94,27.94,46.34,31.51a120.78,120.78,0,0,0,69.72-7.57c19.6-8.44,37.13-23.6,46.08-43.22a75.25,75.25,0,0,0,2.92-7.37h-5.78c.4,1.39.75,2.8,1,4.22.24,1.12.45,2.24.62,3.37q.09.49.15,1a2.44,2.44,0,0,1,.06.39c.09.74.17,1.48.24,2.23a63.8,63.8,0,0,1-1.5,21.55c-4.24,17-16,30.69-31.19,39-9.13,5-19.27,8.07-29.5,10.08-1,.19-2,.37-2.94.53l-1.69.26-.85.12-.68.09c-3.18.39-6.38.65-9.58.76a105.34,105.34,0,0,1-24.94-1.95,91.29,91.29,0,0,1-47.74-25.91q-1.5-1.58-2.93-3.22a3,3,0,0,0-3.64-.47,3.15,3.15,0,0,0-1.38,3.39c4.67,29.52,20.53,56.5,43,76A148.52,148.52,0,0,0,85.22,258.7c.86.44,1.72.87,2.59,1.29a9,9,0,0,0,1.59.72c1.23.34,2.27-.28,3.34-.78q3.26-1.53,6.47-3.17,7.79-4,15.23-8.58a210.84,210.84,0,0,0,55.84-50.5c15.42-19.92,26.86-43,31.77-67.77,6.89-34.73,1.34-71.07-9.71-104.33q-2.15-6.42-4.56-12.74l-2.09,3.69A298.33,298.33,0,0,1,278.92,6.34c8.92.44,17.82,1.25,26.66,2.5L303.38,6Q302.8,22.48,302.22,39c-.32,8.91-.13,18.06-1.84,26.84-1.47,7.6-4.64,15.15-11.23,19.68-7.31,5-16.55,6.17-25.2,6.64a230,230,0,0,1-36.55-1L230,95.7c.19-.3.4-.6.61-.9s.39-.52.58-.79c.36-.49-.07.08,0,0l.47-.6A49,49,0,0,1,237,87.84a36.43,36.43,0,0,1,19.15-9.21c15.29-2,29.07,7.9,37.12,20.16,5.48,8.36,7,18,7.48,27.8a128.88,128.88,0,0,1-.37,17.9,73.56,73.56,0,0,1-1.07,8.25c-.45,2.22-1.13,4.44-2.86,6a16.4,16.4,0,0,1-6,2.91c-2.65.86-5.32,1.66-8,2.46-5.3,1.6-10.62,3.15-15.9,4.79-10.52,3.26-21,6.91-30.81,11.94-16.41,8.41-32.83,22.65-36.53,41.6a43.06,43.06,0,0,0-.78,6.79c-.08,2.44,2.57,3.52,4.52,2.59l21-10c6.54-3.11,13-6.36,19.74-9.09a151.12,151.12,0,0,1,55-11.07l-3-3a83.78,83.78,0,0,1-2.57,29.24A64.94,64.94,0,0,1,280.23,252c-5.25,6.21-11.66,11.42-17.66,16.89q-10.59,9.63-21.19,19.25-14.88,13.46-29.89,26.74h4.24l-58.17-58.65-16.62-16.76c-2.72-2.74-7,1.5-4.24,4.25l58.17,58.64,16.62,16.76a3.07,3.07,0,0,0,4.24,0c16.62-14.69,33.06-29.59,49.46-44.52,6-5.48,12.49-10.73,17.94-16.81a72.27,72.27,0,0,0,14.72-25.11c3.69-10.9,4.62-22.59,3.78-34a3.06,3.06,0,0,0-3-3,158.45,158.45,0,0,0-54.77,10.56c-6.71,2.62-13.19,5.75-19.69,8.84l-24.3,11.58,4.51,2.59c.64-19.26,17-34,32.88-42.45,10-5.32,20.81-9,31.64-12.34,5.47-1.69,11-3.29,16.44-5,5.12-1.55,11-2.74,15.13-6.34s4.87-9.75,5.49-15a127,127,0,0,0,.86-18.5c-.28-10.59-1.46-21.45-6.63-30.89a57.27,57.27,0,0,0-14.56-16.9c-7.15-5.67-15.67-9.31-24.9-9.44-14.19-.21-27.26,8-35.31,19.38-.21.3-.42.6-.61.91-1.33,2.09.46,4.29,2.59,4.51a233.4,233.4,0,0,0,34.06,1.1c9.58-.4,19.67-1.34,28.23-6.05,7.91-4.35,13-11.87,15.44-20.43,2.49-8.72,2.56-17.93,2.88-26.93Q308.7,25.42,309.38,6a3,3,0,0,0-2.2-2.89,306.55,306.55,0,0,0-96.59,1.7q-13.38,2.37-26.5,6A3,3,0,0,0,182,14.43c8.63,22.68,14.9,46.46,16.57,70.74,1.52,22.08-.82,44.12-8.42,65a162.7,162.7,0,0,1-22.84,41.61l-1.22,1.62-.35.45c.31-.4,0,0,0,.05l-.75,1c-.81,1-1.62,2-2.45,3-1.35,1.65-2.73,3.28-4.11,4.89a203.65,203.65,0,0,1-21.52,21.65,206.39,206.39,0,0,1-44,28.83c-1.37.68-2.76,1.34-4.15,2h3A142.87,142.87,0,0,1,57.5,232.41,124.46,124.46,0,0,1,24.22,184a119.85,119.85,0,0,1-6-23l-5,2.92a95.8,95.8,0,0,0,45.91,28.86,111.37,111.37,0,0,0,48.35,2.53,111.52,111.52,0,0,0,29.56-9c16.49-7.79,30-21.25,36.33-38.52a69.07,69.07,0,0,0,1.78-40.45c-.15-.59-.31-1.17-.48-1.75a3,3,0,0,0-5.78,0c-6.27,18.6-20.79,33.54-37.78,42.88-19.63,10.79-42.8,14.41-64.95,12.32a85.57,85.57,0,0,1-26.83-6.82C31.58,150.4,24,145.54,19,138.59A29.71,29.71,0,0,1,13.37,118a34.46,34.46,0,0,1,8.71-19.79c12.81-13.88,34.72-13.25,49.55-3a41.14,41.14,0,0,1,5.47,4.55L77.71,95c-1.55.8-3.15,1.51-4.75,2.2-.43.19.35-.14-.42.17l-1.1.45c-.85.34-1.71.67-2.57,1-1.87.68-3.75,1.32-5.66,1.9-8.82,2.68-18.51,4.46-27.7,2.75A29.43,29.43,0,0,1,22.73,98a26.73,26.73,0,0,1-7.52-9.77A61,61,0,0,1,11,74.45C9.73,68.59,8.85,62.64,8,56.72A137.23,137.23,0,0,1,8.07,17l-2.9,2.2H79.22c3.86,0,3.87-6,0-6Z"/></g></g></svg>